# xmcd
#
# Track frame offsets: 
#        150
#        21570
#        40992
#        62826
#        77641
#        102329
#
# Disc length: 1597 seconds
#
# Revision: 0
# Processed by: cddbd v1.5.2PL0 Copyright (c) Steve Scherf et al.
# Submitted via: ExactAudioCopy v0.99pb4
#
DISCID=4b063b06
DTITLE=The Louisiana Snowblowers - Louisiana Snowblowers
DYEAR=2009
DGENRE=Blues
TTITLE0=Clean Livin Man
TTITLE1=Queen of The Queens
TTITLE2=The Roosevelt Hotel
TTITLE3=She Don't Want You
TTITLE4=Three Chord Johnny
TTITLE5=Untitled
EXTD=
EXTT0=
EXTT1=
EXTT2=
EXTT3=
EXTT4=
EXTT5=
PLAYORDER=
